<svg version="1.1" xmlns="http://www.w3.org/2000/svg" xmlns:xlink="http://www.w3.org/1999/xlink" width="512px" height="512px" viewBox="0,0,256,256"><g fill="#d1095c" fill-rule="nonzero" stroke="none" stroke-width="1" stroke-linecap="butt" stroke-linejoin="miter" stroke-miterlimit="10" stroke-dasharray="" stroke-dashoffset="0" font-family="none" font-weight="none" font-size="none" text-anchor="none" style="mix-blend-mode: normal"><g transform="translate(0,-2.53772) scale(0.5,0.5)"><path d="M47.6,300.4l180.7,168.7c7.5,7 17.4,10.9 27.7,10.9c10.3,0 20.2,-3.9 27.7,-10.9l180.7,-168.7c30.4,-28.3 47.6,-68 47.6,-109.5v-5.8c0,-69.9 -50.5,-129.5 -119.4,-141c-45.6,-7.6 -92,7.3 -124.6,39.9l-12,12l-12,-12c-32.6,-32.6 -79,-47.5 -124.6,-39.9c-68.9,11.5 -119.4,71.1 -119.4,141v5.8c0,41.5 17.2,81.2 47.6,109.5z"></path></g></g></svg>